<svg xmlns="http://www.w3.org/2000/svg" viewBox="0 0 24 24"><defs></defs><title>monitor-team</title><path d="M21,10.5v8.25a1.5,1.5,0,0,1-1.5,1.5H4.5A1.5,1.5,0,0,1,3,18.75V10.5" style="fill: none; stroke: currentColor; stroke-linecap: round; stroke-linejoin: round; stroke-width: 1.5px;"></path><line x1="12" y1="20.25" x2="12" y2="23.25" style="fill: none; stroke: currentColor; stroke-linecap: round; stroke-linejoin: round; stroke-width: 1.5px;"></line><line x1="6.75" y1="23.25" x2="17.25" y2="23.25" style="fill: none; stroke: currentColor; stroke-linecap: round; stroke-linejoin: round; stroke-width: 1.5px;"></line><circle cx="4.647" cy="3" r="2.25" style="fill: none; stroke: currentColor; stroke-linecap: round; stroke-linejoin: round; stroke-width: 1.5px;"></circle><path d="M8.543,8.25a4.5,4.5,0,0,0-7.793,0" style="fill: none; stroke: currentColor; stroke-linecap: round; stroke-linejoin: round; stroke-width: 1.5px;"></path><circle cx="19.354" cy="3" r="2.25" style="fill: none; stroke: currentColor; stroke-linecap: round; stroke-linejoin: round; stroke-width: 1.5px;"></circle><path d="M23.25,8.25a4.5,4.5,0,0,0-7.793,0" style="fill: none; stroke: currentColor; stroke-linecap: round; stroke-linejoin: round; stroke-width: 1.5px;"></path><circle cx="12" cy="3" r="2.25" style="fill: none; stroke: currentColor; stroke-linecap: round; stroke-linejoin: round; stroke-width: 1.5px;"></circle><path d="M15.676,7.906a4.5,4.5,0,0,0-7.353,0" style="fill: none; stroke: currentColor; stroke-linecap: round; stroke-linejoin: round; stroke-width: 1.5px;"></path><line x1="21" y1="17.25" x2="3" y2="17.25" style="fill: none; stroke: currentColor; stroke-linecap: round; stroke-linejoin: round; stroke-width: 1.5px;"></line></svg>