<svg xmlns="http://www.w3.org/2000/svg" viewBox="0 0 24 24"><defs></defs><title>business-deal-handshake</title><path d="M13.787,15.726H14s3.453.007,3.5,0l2.18-.4a1,1,0,0,0,.82-.984V8.908a1,1,0,0,0-.635-.931L14.82,6a1.5,1.5,0,0,0-1.5.239L9.655,9.254a.769.769,0,0,0,.729,1.325L14.5,9.226" style="fill: none; stroke: currentColor; stroke-linecap: round; stroke-linejoin: round;"></path><path d="M3.5,13.726l2.6.5,3.585,3.585a1,1,0,0,0,.877.279l.5-.087a1,1,0,0,0,.816-.816l.174-1.013,1.709-.295.295-1.708,1.709-.295.294-1.709-2.6-2.6" style="fill: none; stroke: currentColor; stroke-linecap: round; stroke-linejoin: round;"></path><path d="M11.57,7.678,10.091,6.2A1,1,0,0,0,9,5.982L6,7.226l-2.5.5" style="fill: none; stroke: currentColor; stroke-linecap: round; stroke-linejoin: round;"></path><path d="M.5,6.226h2a1,1,0,0,1,1,1v7a1,1,0,0,1-1,1H.5a0,0,0,0,1,0,0v-9A0,0,0,0,1,.5,6.226Z" style="fill: none; stroke: currentColor; stroke-linecap: round; stroke-linejoin: round;"></path><path d="M21.5,7.226h2a0,0,0,0,1,0,0v9a0,0,0,0,1,0,0h-2a1,1,0,0,1-1-1v-7A1,1,0,0,1,21.5,7.226Z" style="fill: none; stroke: currentColor; stroke-linecap: round; stroke-linejoin: round;"></path></svg>