<svg xmlns="http://www.w3.org/2000/svg" viewBox="0 0 24 24"><defs></defs><title>cash-bulb</title><line x1="9" y1="21.75" x2="15" y2="21.75" style="fill: none; stroke: currentColor; stroke-linecap: round; stroke-linejoin: round; stroke-width: 1.5px;"></line><line x1="12" y1="21.75" x2="12" y2="23.25" style="fill: none; stroke: currentColor; stroke-linecap: round; stroke-linejoin: round; stroke-width: 1.5px;"></line><path d="M20.25,9A8.25,8.25,0,1,0,9,16.687V18.75h6V16.687A8.252,8.252,0,0,0,20.25,9Z" style="fill: none; stroke: currentColor; stroke-linecap: round; stroke-linejoin: round; stroke-width: 1.5px;"></path><path d="M10.142,10.844A2.221,2.221,0,0,0,12,11.719c1.139,0,2.062-.693,2.062-1.547S13.139,8.625,12,8.625,9.937,7.932,9.937,7.077,10.861,5.53,12,5.53a2.224,2.224,0,0,1,1.858.875" style="fill: none; stroke: currentColor; stroke-linecap: round; stroke-linejoin: round; stroke-width: 1.5px;"></path><line x1="12" y1="11.719" x2="12" y2="12.75" style="fill: none; stroke: currentColor; stroke-linecap: round; stroke-linejoin: round; stroke-width: 1.5px;"></line><line x1="12" y1="4.5" x2="12" y2="5.53" style="fill: none; stroke: currentColor; stroke-linecap: round; stroke-linejoin: round; stroke-width: 1.5px;"></line></svg>