<svg xmlns="http://www.w3.org/2000/svg" width="1272.36" height="797.03" viewBox="0 0 1272.36 797.03">
  <g id="logo" transform="translate(-363.82 -601.49)">
    <g id="Group_133" data-name="Group 133">
      <g id="Group_131" data-name="Group 131">
        <path id="Path_138" data-name="Path 138" d="M488.75,1365.41h-18.6v8.06h13.66v6.92H470.15v10.05h19.32v7.34H462.02v-39.72h26.72v7.35Z"/>
        <path id="Path_139" data-name="Path 139" d="M534.47,1397.79l-8.43-13.18-8.43,13.18h-9.27l13.18-20.22-12.4-19.5h9.27l7.64,12.58,7.58-12.58h9.21l-12.16,19.5,13,20.22Z"/>
        <path id="Path_140" data-name="Path 140" d="M589.98,1361.59a12.811,12.811,0,0,1,0,18.6,14.886,14.886,0,0,1-10.32,3.58h-6.8v14.02h-8.13v-39.72h14.93A15.041,15.041,0,0,1,589.98,1361.59Zm-17.13,3.64v11.44h6.8a5.934,5.934,0,0,0,4.42-1.6,5.685,5.685,0,0,0,1.6-4.18,5.4,5.4,0,0,0-1.63-4.09,6.073,6.073,0,0,0-4.39-1.56h-6.8Z"/>
        <path id="Path_141" data-name="Path 141" d="M634.71,1392.62H618.46l-2.23,5.18H607.5l17.76-40.45h2.71l17.7,40.45h-8.73Zm-8.13-20.05-5.24,13.36h10.47Z"/>
        <path id="Path_142" data-name="Path 142" d="M700.53,1358.07v40.45h-2.71l-22.99-24.56v23.83H666.7v-40.45h2.65l23.05,24.38v-23.65h8.13Z"/>
        <path id="Path_143" data-name="Path 143" d="M753.9,1363.48q6.015,5.415,6.02,14.33a18.749,18.749,0,0,1-6.05,14.39q-6.045,5.595-15.62,5.6h-13v-39.72h13Q747.88,1358.065,753.9,1363.48Zm-20.52,1.93v25.04h4.81a13.546,13.546,0,0,0,9.69-3.46,12.022,12.022,0,0,0,3.67-9.18,11.668,11.668,0,0,0-3.64-9.09q-3.645-3.315-9.72-3.31Z"/>
        <path id="Path_144" data-name="Path 144" d="M790.53,1397.79H782.4v-39.72h8.13Z"/>
        <path id="Path_145" data-name="Path 145" d="M849.08,1358.07v40.45h-2.71l-22.99-24.56v23.83h-8.13v-40.45h2.65l23.05,24.38v-23.65h8.13Z"/>
        <path id="Path_146" data-name="Path 146" d="M909.49,1365.95l-5.78,4.75a13.053,13.053,0,0,0-11.08-5.84,12.253,12.253,0,0,0-9.24,3.67,14.343,14.343,0,0,0,.12,18.96,12.805,12.805,0,0,0,9.6,3.73q6.93,0,10.47-4.93v-3.25H892.63V1376h19.08v11.74a20.949,20.949,0,0,1-7.73,7.8,21.653,21.653,0,0,1-11.23,2.98,20.94,20.94,0,0,1-15.11-5.93,20.559,20.559,0,0,1,0-29.31,20.924,20.924,0,0,1,15.11-5.93A19.277,19.277,0,0,1,909.49,1365.95Z"/>
        <path id="Path_147" data-name="Path 147" d="M992.12,1361.59a12.811,12.811,0,0,1,0,18.6,14.886,14.886,0,0,1-10.32,3.58H975v14.02h-8.13v-39.72H981.8A15.024,15.024,0,0,1,992.12,1361.59ZM975,1365.23v11.44h6.8a5.934,5.934,0,0,0,4.42-1.6,5.685,5.685,0,0,0,1.6-4.18,5.4,5.4,0,0,0-1.63-4.09,6.073,6.073,0,0,0-4.39-1.56H975Z"/>
        <path id="Path_148" data-name="Path 148" d="M1052.02,1363.28a20.42,20.42,0,0,1,0,29.31,21.835,21.835,0,0,1-29.92,0,20.559,20.559,0,0,1,0-29.31,21.835,21.835,0,0,1,29.92,0Zm-24.07,5.26a14.1,14.1,0,0,0-.03,18.81,13.28,13.28,0,0,0,18.3-.03,13.932,13.932,0,0,0,0-18.78,13.2,13.2,0,0,0-18.27,0Z"/>
        <path id="Path_149" data-name="Path 149" d="M1101.08,1359.39a14.359,14.359,0,0,1,5.21,5.48l-5.54,4.28q-3.075-4.575-7.58-4.58a5.991,5.991,0,0,0-3.52.99,3.287,3.287,0,0,0-1.41,2.86,3.167,3.167,0,0,0,1.05,2.5,15.386,15.386,0,0,0,3.58,2.08l4.51,1.98a21.625,21.625,0,0,1,7.4,4.91,9.628,9.628,0,0,1,2.41,6.71,10.7,10.7,0,0,1-3.91,8.67,15.1,15.1,0,0,1-9.99,3.25,17.261,17.261,0,0,1-15.35-8.79l5.6-4.21q4.155,5.775,9.75,5.78a6.586,6.586,0,0,0,4.15-1.17,3.863,3.863,0,0,0,1.51-3.22,3.51,3.51,0,0,0-.69-2.14,4.913,4.913,0,0,0-1.56-1.41c-.58-.32-1.52-.78-2.8-1.38l-4.27-1.93a21.858,21.858,0,0,1-7.13-4.81,9.374,9.374,0,0,1-2.5-6.62,10.058,10.058,0,0,1,3.73-8.15,14.282,14.282,0,0,1,9.45-3.1A14.657,14.657,0,0,1,1101.08,1359.39Z"/>
        <path id="Path_150" data-name="Path 150" d="M1150.06,1359.39a14.359,14.359,0,0,1,5.21,5.48l-5.54,4.28q-3.075-4.575-7.58-4.58a5.991,5.991,0,0,0-3.52.99,3.287,3.287,0,0,0-1.41,2.86,3.167,3.167,0,0,0,1.05,2.5,15.386,15.386,0,0,0,3.58,2.08l4.51,1.98a21.625,21.625,0,0,1,7.4,4.91,9.628,9.628,0,0,1,2.41,6.71,10.7,10.7,0,0,1-3.91,8.67,15.1,15.1,0,0,1-9.99,3.25,17.261,17.261,0,0,1-15.35-8.79l5.6-4.21q4.155,5.775,9.75,5.78a6.586,6.586,0,0,0,4.15-1.17,3.863,3.863,0,0,0,1.51-3.22,3.51,3.51,0,0,0-.69-2.14,4.84,4.84,0,0,0-1.57-1.41c-.58-.32-1.52-.78-2.8-1.38l-4.27-1.93a21.858,21.858,0,0,1-7.13-4.81,9.374,9.374,0,0,1-2.5-6.62,10.058,10.058,0,0,1,3.73-8.15,14.282,14.282,0,0,1,9.45-3.1A14.717,14.717,0,0,1,1150.06,1359.39Z"/>
        <path id="Path_151" data-name="Path 151" d="M1187.08,1397.79h-8.13v-39.72h8.13Z"/>
        <path id="Path_152" data-name="Path 152" d="M1240.73,1380.04a10.1,10.1,0,0,1,1.84,6.08,10.774,10.774,0,0,1-3.64,8.43,13.607,13.607,0,0,1-9.42,3.25h-17.7v-39.72h14.09a13.2,13.2,0,0,1,9.06,3.1,10.146,10.146,0,0,1,3.52,7.98,9.472,9.472,0,0,1-2.95,7.16A10.515,10.515,0,0,1,1240.73,1380.04Zm-21.1-14.99v9.09h5.6a5.466,5.466,0,0,0,3.82-1.23,4.3,4.3,0,0,0,1.35-3.34,4.2,4.2,0,0,0-1.35-3.31,5.571,5.571,0,0,0-3.82-1.2h-5.6Zm13.43,24.44a5.179,5.179,0,0,0,0-7.31,5.992,5.992,0,0,0-4.15-1.35h-9.27v9.99h9.27A6.151,6.151,0,0,0,1233.06,1389.49Z"/>
        <path id="Path_153" data-name="Path 153" d="M1272.94,1397.79h-8.13v-39.72h8.13Z"/>
        <path id="Path_154" data-name="Path 154" d="M1305.79,1390.45h17.39v7.34h-25.52v-39.72h8.13Z"/>
        <path id="Path_155" data-name="Path 155" d="M1352.96,1397.79h-8.13v-39.72h8.13Z"/>
        <path id="Path_156" data-name="Path 156" d="M1407.54,1365.41h-12.76v32.38h-8.13v-32.38h-12.7v-7.34h33.59Z"/>
        <path id="Path_157" data-name="Path 157" d="M1436.65,1397.79h-8.13v-39.72h8.13Z"/>
        <path id="Path_158" data-name="Path 158" d="M1488.1,1365.41h-18.6v8.06h13.66v6.92H1469.5v10.05h19.32v7.34h-27.45v-39.72h26.72v7.35Z"/>
        <path id="Path_159" data-name="Path 159" d="M1531.87,1359.39a14.359,14.359,0,0,1,5.21,5.48l-5.54,4.28q-3.075-4.575-7.58-4.58a5.991,5.991,0,0,0-3.52.99,3.287,3.287,0,0,0-1.41,2.86,3.167,3.167,0,0,0,1.05,2.5,15.386,15.386,0,0,0,3.58,2.08l4.51,1.98a21.625,21.625,0,0,1,7.4,4.91,9.628,9.628,0,0,1,2.41,6.71,10.7,10.7,0,0,1-3.91,8.67,15.1,15.1,0,0,1-9.99,3.25,17.261,17.261,0,0,1-15.35-8.79l5.6-4.21q4.155,5.775,9.75,5.78a6.586,6.586,0,0,0,4.15-1.17,3.863,3.863,0,0,0,1.51-3.22,3.51,3.51,0,0,0-.69-2.14,4.913,4.913,0,0,0-1.56-1.41c-.58-.32-1.52-.78-2.8-1.38l-4.27-1.93a21.858,21.858,0,0,1-7.13-4.81,9.374,9.374,0,0,1-2.5-6.62,10.058,10.058,0,0,1,3.73-8.15,14.282,14.282,0,0,1,9.45-3.1A14.7,14.7,0,0,1,1531.87,1359.39Z"/>
      </g>
      <g id="Group_132" data-name="Group 132">
        <path id="Path_160" data-name="Path 160" d="M481.54,1313.46a87.077,87.077,0,0,1-9.56,5.43,76.581,76.581,0,0,1-15.09,5.53,70.981,70.981,0,0,1-19.42,2.11,79.031,79.031,0,0,1-30.79-6.14,68.193,68.193,0,0,1-23.14-16.1,72.377,72.377,0,0,1-14.59-23.34,76.66,76.66,0,0,1-5.13-28.07,86.077,86.077,0,0,1,5.23-30.59,70.634,70.634,0,0,1,14.89-24.05,67.964,67.964,0,0,1,22.94-15.8,73.521,73.521,0,0,1,28.98-5.63,77.12,77.12,0,0,1,24.85,3.72,89.633,89.633,0,0,1,18.41,8.35l-9.26,21.93a95.119,95.119,0,0,0-14.09-7.65,45.874,45.874,0,0,0-19.12-3.82,45.12,45.12,0,0,0-18.51,3.93,46.687,46.687,0,0,0-15.49,11.07,55.249,55.249,0,0,0-10.56,16.6,52.975,52.975,0,0,0-3.92,20.52,61.2,61.2,0,0,0,3.52,21.13,47.747,47.747,0,0,0,10.06,16.6,46.38,46.38,0,0,0,15.7,10.87,53.863,53.863,0,0,0,54.23-7.55Z"/>
        <path id="Path_161" data-name="Path 161" d="M517.56,1324.93l64.79-152.53h1.41l64.8,152.53H621.6l-45.48-115.91,16.7-11.27L540.5,1324.93Zm40.65-54.54h50.11l8.05,20.13h-65.2Z"/>
        <path id="Path_162" data-name="Path 162" d="M734.89,1178.43a74.391,74.391,0,0,1,22.13,3.12,47.511,47.511,0,0,1,17.11,9.16,41.66,41.66,0,0,1,10.97,14.79,48.427,48.427,0,0,1,3.92,20.02,59.363,59.363,0,0,1-2.62,17.31,42.925,42.925,0,0,1-8.55,15.59,43.527,43.527,0,0,1-15.59,11.27q-9.66,4.335-23.95,4.33H717.18v50.91H693.64v-146.5h41.25Zm3.21,73.05a29.936,29.936,0,0,0,13.08-2.52,22.029,22.029,0,0,0,8.15-6.34,25.916,25.916,0,0,0,4.23-8.15,28.26,28.26,0,0,0,1.31-8.15,29.632,29.632,0,0,0-1.21-7.95,25.085,25.085,0,0,0-4.13-8.25,22.776,22.776,0,0,0-7.95-6.54q-5.025-2.61-12.68-2.61H717.17v50.51Zm25.36,13.88,37.43,59.56H773.72l-38.23-58.96Z"/>
        <path id="Path_163" data-name="Path 163" d="M890.03,1178.43q16.7,0,28.58,5.64a41.448,41.448,0,0,1,18.21,16.1q6.345,10.47,6.34,25.35a57.565,57.565,0,0,1-2.72,17.31,46.82,46.82,0,0,1-8.45,15.69,40.256,40.256,0,0,1-15.29,11.27q-9.555,4.23-23.44,4.23H872.13v50.91H848.59v-146.5Zm3.22,73.05a28.671,28.671,0,0,0,12.88-2.61,21.931,21.931,0,0,0,8.15-6.64,29.244,29.244,0,0,0,5.54-16.3,29.034,29.034,0,0,0-1.21-7.75,26.3,26.3,0,0,0-4.02-8.25,21.087,21.087,0,0,0-7.85-6.44q-5.025-2.52-12.88-2.52H872.13v50.51h21.12Z"/>
        <path id="Path_164" data-name="Path 164" d="M991.65,1178.43h88.94v22.54h-65.4v41.25h56.95v22.34h-56.95v60.37H991.65Z"/>
        <path id="Path_165" data-name="Path 165" d="M1131.1,1178.43h23.54v146.5H1131.1Z"/>
        <path id="Path_166" data-name="Path 166" d="M1215.01,1178.43h97.19v22.54h-73.65v39.04h65.6v22.54h-65.6v39.84h76.47v22.54H1215.01v-146.5Z"/>
        <path id="Path_167" data-name="Path 167" d="M1367.54,1178.43h23.54v123.96h72.04v22.54h-95.58v-146.5Z"/>
        <path id="Path_168" data-name="Path 168" d="M1514.43,1324.93v-146.5h41.66q21.735,0,37.13,6.64t24.85,17.51a68.976,68.976,0,0,1,13.78,24.25,87.075,87.075,0,0,1,4.33,26.87,71.87,71.87,0,0,1-5.84,29.58,67.458,67.458,0,0,1-16,22.44,70.791,70.791,0,0,1-23.34,14.29,78.844,78.844,0,0,1-27.87,4.93h-48.7Zm23.55-22.54h20.93a65.105,65.105,0,0,0,21.33-3.32,48.993,48.993,0,0,0,16.8-9.66,42.647,42.647,0,0,0,11.07-15.8,55.694,55.694,0,0,0,3.92-21.53q0-13.68-4.53-23.44a45.145,45.145,0,0,0-11.87-15.9,49.618,49.618,0,0,0-16-9.06,53.445,53.445,0,0,0-17.1-2.92h-24.55Z"/>
      </g>
    </g>
    <g id="Group_145" data-name="Group 145">
      <g id="Group_141" data-name="Group 141">
        <g id="Group_140" data-name="Group 140">
          <g id="Group_135" data-name="Group 135">
            <g id="Group_134" data-name="Group 134">
              <path id="Path_169" data-name="Path 169" d="M729.1,958.87v70.55H709.33a7.913,7.913,0,0,1-7.92-7.89V966.79a7.938,7.938,0,0,1,7.92-7.92H729.1Z" fill="#efba0f"/>
              <rect id="Rectangle_50" data-name="Rectangle 50" width="28.24" height="70.55" transform="translate(737.42 958.87)" fill="#efba0f"/>
              <rect id="Rectangle_51" data-name="Rectangle 51" width="32.39" height="70.55" transform="translate(773.99 958.87)" fill="#efba0f"/>
              <rect id="Rectangle_52" data-name="Rectangle 52" width="41.36" height="70.55" transform="translate(814.73 958.87)" fill="#efba0f"/>
              <rect id="Rectangle_53" data-name="Rectangle 53" width="66.08" height="70.55" transform="translate(864.42 958.87)" fill="#efba0f"/>
              <rect id="Rectangle_54" data-name="Rectangle 54" width="66.08" height="70.55" transform="translate(938.82 958.87)" fill="#efba0f"/>
              <rect id="Rectangle_55" data-name="Rectangle 55" width="41.36" height="70.55" transform="translate(1013.27 958.87)" fill="#efba0f"/>
              <rect id="Rectangle_56" data-name="Rectangle 56" width="32.39" height="70.55" transform="translate(1062.95 958.87)" fill="#efba0f"/>
              <rect id="Rectangle_57" data-name="Rectangle 57" width="28.21" height="70.55" transform="translate(1103.7 958.87)" fill="#efba0f"/>
              <path id="Path_170" data-name="Path 170" d="M1167.93,966.79v54.74a7.887,7.887,0,0,1-7.89,7.89h-19.77V958.87h19.77A7.913,7.913,0,0,1,1167.93,966.79Z" fill="#efba0f"/>
            </g>
            <path id="Path_171" data-name="Path 171" d="M1160.04,923.7H709.32a29.768,29.768,0,0,0-29.73,29.73v54.74a29.761,29.761,0,0,0,29.73,29.7h450.72a29.736,29.736,0,0,0,29.7-29.7V953.43A29.742,29.742,0,0,0,1160.04,923.7ZM729.1,1016.06H709.33a7.913,7.913,0,0,1-7.92-7.89V953.43a7.938,7.938,0,0,1,7.92-7.92H729.1Zm36.56,0H737.42V945.51h28.24Zm40.71,0H773.98V945.51h32.39Zm49.73,0H814.74V945.51H856.1Zm74.4,0H864.42V945.51H930.5Zm74.41,0H938.83V945.51h66.08Zm49.72,0h-41.36V945.51h41.36Zm40.71,0h-32.39V945.51h32.39Zm36.57,0H1103.7V945.51h28.21Zm36.02-7.89a7.887,7.887,0,0,1-7.89,7.89h-19.77V945.51h19.77a7.913,7.913,0,0,1,7.89,7.92Z" fill="#0f0e15"/>
          </g>
          <g id="Group_137" data-name="Group 137">
            <g id="Group_136" data-name="Group 136">
              <path id="Path_172" data-name="Path 172" d="M1124.64,828.06l-37.79,59.58-16.7-10.59a7.916,7.916,0,0,1-2.47-10.9L1097,819.93a7.956,7.956,0,0,1,10.94-2.45Z" fill="#efba0f"/>
              <rect id="Rectangle_58" data-name="Rectangle 58" width="70.55" height="28.24" transform="translate(1093.881 892.15) rotate(-57.608)" fill="#efba0f"/>
              <rect id="Rectangle_59" data-name="Rectangle 59" width="70.55" height="32.39" transform="translate(1124.764 911.739) rotate(-57.608)" fill="#efba0f"/>
              <rect id="Rectangle_60" data-name="Rectangle 60" width="70.55" height="41.36" transform="translate(1159.171 933.564) rotate(-57.608)" fill="#efba0f"/>
              <rect id="Rectangle_61" data-name="Rectangle 61" width="70.55" height="66.08" transform="translate(1201.13 960.186) rotate(-57.608)" fill="#efba0f"/>
              <rect id="Rectangle_62" data-name="Rectangle 62" width="70.55" height="66.08" transform="translate(1263.963 1000.046) rotate(-57.608)" fill="#efba0f"/>
              <rect id="Rectangle_63" data-name="Rectangle 63" width="70.55" height="41.36" transform="translate(1326.817 1039.926) rotate(-57.608)" fill="#efba0f"/>
              <rect id="Rectangle_64" data-name="Rectangle 64" width="70.55" height="32.39" transform="translate(1368.776 1066.542) rotate(-57.608)" fill="#efba0f"/>
              <rect id="Rectangle_65" data-name="Rectangle 65" width="70.55" height="28.21" transform="translate(1403.185 1088.373) rotate(-57.608)" fill="#efba0f"/>
              <path id="Path_173" data-name="Path 173" d="M1490.96,1069.82l-29.32,46.22a7.883,7.883,0,0,1-10.89,2.43l-16.7-10.59,37.79-59.58,16.7,10.59A7.941,7.941,0,0,1,1490.96,1069.82Z" fill="#efba0f"/>
            </g>
            <path id="Path_174" data-name="Path 174" d="M1507.38,1029.21l-380.6-241.44a29.768,29.768,0,0,0-41.03,9.18l-29.32,46.22a29.761,29.761,0,0,0,9.2,41l380.6,241.44a29.728,29.728,0,0,0,40.98-9.17l29.32-46.22A29.736,29.736,0,0,0,1507.38,1029.21ZM1094.01,876.36l-16.7-10.59a7.916,7.916,0,0,1-2.47-10.9l29.32-46.22a7.956,7.956,0,0,1,10.94-2.45l16.7,10.59Zm30.87,19.58-23.85-15.13,37.79-59.58,23.85,15.13Zm34.38,21.81-27.35-17.35,37.79-59.58,27.35,17.35Zm41.99,26.64-34.93-22.16,37.79-59.58,34.93,22.16Zm62.83,39.85-55.8-35.4,37.79-59.58,55.8,35.4Zm62.83,39.86-55.8-35.4,37.79-59.58,55.8,35.4Zm41.98,26.63-34.93-22.16,37.79-59.58,34.93,22.16Zm34.38,21.81-27.35-17.35,37.79-59.58,27.35,17.35Zm30.88,19.59-23.82-15.11,37.79-59.58,23.82,15.11Zm34.64,12.63a7.9,7.9,0,0,1-10.89,2.44l-16.7-10.59,37.79-59.58,16.7,10.59a7.925,7.925,0,0,1,2.42,10.92Z" fill="#0f0e15"/>
          </g>
          <g id="Group_139" data-name="Group 139">
            <g id="Group_138" data-name="Group 138">
              <path id="Path_175" data-name="Path 175" d="M794.43,1051.23v70.55H774.66a7.913,7.913,0,0,1-7.92-7.89v-54.74a7.938,7.938,0,0,1,7.92-7.92Z" fill="#efba0f"/>
              <rect id="Rectangle_66" data-name="Rectangle 66" width="28.24" height="70.55" transform="translate(802.76 1051.23)" fill="#efba0f"/>
              <rect id="Rectangle_67" data-name="Rectangle 67" width="32.39" height="70.55" transform="translate(839.32 1051.23)" fill="#efba0f"/>
              <rect id="Rectangle_68" data-name="Rectangle 68" width="41.36" height="70.55" transform="translate(880.07 1051.23)" fill="#efba0f"/>
              <rect id="Rectangle_69" data-name="Rectangle 69" width="66.08" height="70.55" transform="translate(929.76 1051.23)" fill="#efba0f"/>
              <rect id="Rectangle_70" data-name="Rectangle 70" width="66.08" height="70.55" transform="translate(1004.16 1051.23)" fill="#efba0f"/>
              <rect id="Rectangle_71" data-name="Rectangle 71" width="41.36" height="70.55" transform="translate(1078.6 1051.23)" fill="#efba0f"/>
              <rect id="Rectangle_72" data-name="Rectangle 72" width="32.39" height="70.55" transform="translate(1128.29 1051.23)" fill="#efba0f"/>
              <rect id="Rectangle_73" data-name="Rectangle 73" width="28.21" height="70.55" transform="translate(1169.04 1051.23)" fill="#efba0f"/>
              <path id="Path_176" data-name="Path 176" d="M1233.26,1059.15v54.74a7.887,7.887,0,0,1-7.89,7.89H1205.6v-70.55h19.77A7.906,7.906,0,0,1,1233.26,1059.15Z" fill="#efba0f"/>
            </g>
            <path id="Path_177" data-name="Path 177" d="M1225.38,1016.06H774.66a29.768,29.768,0,0,0-29.73,29.73v54.74a29.761,29.761,0,0,0,29.73,29.7h450.72a29.736,29.736,0,0,0,29.7-29.7v-54.74A29.749,29.749,0,0,0,1225.38,1016.06Zm-430.95,92.36H774.66a7.913,7.913,0,0,1-7.92-7.89v-54.74a7.938,7.938,0,0,1,7.92-7.92h19.77Zm36.57,0H802.76v-70.55H831Zm40.71,0H839.32v-70.55h32.39Zm49.72,0H880.07v-70.55h41.36Zm74.41,0H929.76v-70.55h66.08Zm74.4,0h-66.08v-70.55h66.08Zm49.73,0h-41.36v-70.55h41.36Zm40.71,0h-32.39v-70.55h32.39Zm36.56,0h-28.21v-70.55h28.21Zm36.02-7.89a7.887,7.887,0,0,1-7.89,7.89H1205.6v-70.55h19.77a7.913,7.913,0,0,1,7.89,7.92Z" fill="#0f0e15"/>
          </g>
        </g>
      </g>
      <g id="Group_142" data-name="Group 142">
        <rect id="Rectangle_74" data-name="Rectangle 74" width="36.57" height="253.9" transform="translate(729.1 675.23)" fill="#0f0e15"/>
        <rect id="Rectangle_75" data-name="Rectangle 75" width="36.57" height="211.58" transform="translate(796.45 717.55)" fill="#0f0e15"/>
        <rect id="Rectangle_76" data-name="Rectangle 76" width="36.57" height="306.48" transform="translate(863.8 622.65)" fill="#0f0e15"/>
        <rect id="Rectangle_77" data-name="Rectangle 77" width="36.57" height="264.48" transform="translate(931.16 664.65)" fill="#0f0e15"/>
        <rect id="Rectangle_78" data-name="Rectangle 78" width="36.57" height="327.64" transform="translate(998.51 601.49)" fill="#0f0e15"/>
      </g>
      <g id="Group_144" data-name="Group 144">
        <path id="Path_178" data-name="Path 178" d="M1133.29,669.67l-67-1,13.47,18.85L880.04,822.81,743.92,745.54l-69.57,62.54,21.87,24.33,52.05-46.79L881.56,861.3l217.21-147.15,13.72,19.22Z" fill="#93c01f"/>
        <g id="Group_143" data-name="Group 143">
          <path id="Path_179" data-name="Path 179" d="M1130.16,679.25l3.13-9.58-67-1,6.95,9.72Z" fill="#d9d9d9"/>
          <path id="Path_180" data-name="Path 180" d="M743.92,755.16l136.12,77.27,199.72-135.29-4.63-6.48L880.04,822.81,743.92,745.54l-69.57,62.54,4.78,5.32Z" fill="#d9d9d9"/>
        </g>
      </g>
    </g>
  </g>
</svg>
