<svg xmlns="http://www.w3.org/2000/svg" viewBox="0 0 24 24"><defs></defs><title>laptop-launch</title><path d="M13.776,15.527c0,1.486-1.9,3.473-1.9,3.473s-1.9-1.987-1.9-3.473a1.9,1.9,0,1,1,3.791,0Z" style="fill: none; stroke: currentColor; stroke-linecap: round; stroke-linejoin: round;"></path><path d="M13.88,4.5c0-1.657-2-3-2-3s-2,1.343-2,3v7h4Z" style="fill: none; stroke: currentColor; stroke-linecap: round; stroke-linejoin: round;"></path><path d="M9.88,11.5H7.446a.5.5,0,0,1-.484-.624A4.343,4.343,0,0,1,9.88,8" style="fill: none; stroke: currentColor; stroke-linecap: round; stroke-linejoin: round;"></path><path d="M13.88,11.5h2.434a.5.5,0,0,0,.485-.624A4.353,4.353,0,0,0,13.88,8" style="fill: none; stroke: currentColor; stroke-linecap: round; stroke-linejoin: round;"></path><path d="M8.88,13.5a1,1,0,0,0-1,.5.549.549,0,0,0,0,.5h-.5A1.545,1.545,0,0,0,5.88,16" style="fill: none; stroke: currentColor; stroke-linecap: round; stroke-linejoin: round;"></path><path d="M14.88,13.5a1,1,0,0,1,1,.5.546.546,0,0,1,0,.5h.5a1.544,1.544,0,0,1,1.5,1.5" style="fill: none; stroke: currentColor; stroke-linecap: round; stroke-linejoin: round;"></path><path d="M19.38,17.5a1.114,1.114,0,0,1,1.029.5l2.471,3a1.061,1.061,0,0,1-1,1.5H2.361A1.051,1.051,0,0,1,1.38,21l2.45-3a1,1,0,0,1,.864-.5" style="fill: none; stroke: currentColor; stroke-linecap: round; stroke-linejoin: round;"></path><path d="M7.879,5.5h-3a1,1,0,0,0-1,1v10c0,.552-.052,1,.5,1h3.5" style="fill: none; stroke: currentColor; stroke-linecap: round; stroke-linejoin: round;"></path><path d="M15.88,17.5h3.5c.553,0,.5-.448.5-1V6.5a1,1,0,0,0-1-1h-3" style="fill: none; stroke: currentColor; stroke-linecap: round; stroke-linejoin: round;"></path><line x1="10.38" y1="20.5" x2="13.38" y2="20.5" style="fill: none; stroke: currentColor; stroke-linecap: round; stroke-linejoin: round;"></line></svg>