<svg xmlns="http://www.w3.org/2000/svg" viewBox="0 0 24 24"><defs></defs><title>business-climb-top-1</title><path d="M4.25,23.5,12.75,10a1.259,1.259,0,0,1,2,0l8.5,13.5Z" style="fill: none; stroke: currentColor; stroke-linecap: round; stroke-linejoin: round; stroke-width: 0.985px;"></path><path d="M4.25,23.5H.75L4.25,18a1.341,1.341,0,0,1,1-.5,1.341,1.341,0,0,1,1,.5L6.9,19.3" style="fill: none; stroke: currentColor; stroke-linecap: round; stroke-linejoin: round; stroke-width: 0.985px;"></path><path d="M8.705,16.424l2.343,1.982a1,1,0,0,0,1.353-.057l.642-.642a1,1,0,0,1,1.414,0l.642.642a1,1,0,0,0,1.353.057L18.8,16.424" style="fill: none; stroke: currentColor; stroke-linecap: round; stroke-linejoin: round; stroke-width: 0.985px;"></path><line x1="13.75" y1="9.5" x2="13.75" y2="0.5" style="fill: none; stroke: currentColor; stroke-linecap: round; stroke-linejoin: round; stroke-width: 0.985px;"></line><path d="M13.75.5h5.5a.5.5,0,0,1,.5.5V5a.5.5,0,0,1-.5.5h-5.5" style="fill: none; stroke: currentColor; stroke-linecap: round; stroke-linejoin: round; stroke-width: 0.985px;"></path><path d="M19.75,2.5h2.5a.5.5,0,0,1,.5.5V7a.5.5,0,0,1-.5.5h-3a.5.5,0,0,1-.5-.5V5.5" style="fill: none; stroke: currentColor; stroke-linecap: round; stroke-linejoin: round; stroke-width: 0.985px;"></path></svg>