<svg xmlns="http://www.w3.org/2000/svg" width="23.994" height="24.061" viewBox="0 0 23.994 24.061">
  <g id="time" transform="translate(-0.02 -0.038)">
    <path id="Path_218" data-name="Path 218" d="M10.621,17.879c1.589-1.9.1-4.338,1.513-5.981a2.759,2.759,0,1,1,4.179,3.6A6.5,6.5,0,0,1,10.621,17.879Z" fill="none" stroke="#000" stroke-linecap="round" stroke-linejoin="round" stroke-width="1.5"/>
    <path id="Path_219" data-name="Path 219" d="M16.6,12.291l6.231-8.253A2.038,2.038,0,1,0,19.377,1.9l-4.53,9.116" fill="none" stroke="#000" stroke-linecap="round" stroke-linejoin="round" stroke-width="1.5"/>
    <path id="Path_220" data-name="Path 220" d="M7.557,17.07C2.257,15.727,4.335,12.954,2,12.954c-3.036,0-.088,6.968,4.892,9.555a7.459,7.459,0,0,0,8.389-1.435l.081-.082" fill="none" stroke="#000" stroke-linecap="round" stroke-linejoin="round" stroke-width="1.5"/>
  </g>
</svg>
