<svg xmlns="http://www.w3.org/2000/svg" viewBox="0 0 24 24"><defs></defs><title>seat-find</title><path d="M4.517,9.944l-.295.184A1.5,1.5,0,0,0,3.517,11.4v1.337a1.5,1.5,0,0,1-3,0V11.4A4.5,4.5,0,0,1,2.633,7.584l1.373-.858a3.5,3.5,0,0,1,4.072.259l4.389,3.592a1.5,1.5,0,0,1-1.9,2.322L7.517,10.4V13.51a5.54,5.54,0,0,0,.881,3l2.8,4.358a1.571,1.571,0,0,1-.259,2.059,1.5,1.5,0,0,1-2.209-.352l-2.25-3.5L4.258,22.567a1.5,1.5,0,0,1-2.216.356,1.57,1.57,0,0,1-.262-2.05l1.251-1.965a6.789,6.789,0,0,0,1.486-3.646" style="fill: none; stroke: currentColor; stroke-linecap: round; stroke-linejoin: round;"></path><circle cx="6.017" cy="2.738" r="2" style="fill: none; stroke: currentColor; stroke-linecap: round; stroke-linejoin: round;"></circle><polyline points="15.017 4.262 16.517 6.262 15.017 8.262" style="fill: none; stroke: currentColor; stroke-linecap: round; stroke-linejoin: round;"></polyline><line x1="16.517" y1="6.262" x2="12.517" y2="6.262" style="fill: none; stroke: currentColor; stroke-linecap: round; stroke-linejoin: round;"></line><path d="M14.517,16.262a1,1,0,0,1,1-1h3.249a1,1,0,0,0,1-.895l.719-6.831-.023-.211-1.046-3.14a1,1,0,0,1,.632-1.265l.949-.316a1,1,0,0,1,1.264.633L23.3,6.377a3.492,3.492,0,0,1,.16,1.474l-.86,8.173a2.5,2.5,0,0,1-2.486,2.238h-4.6a1,1,0,0,1-1-1Z" style="fill: none; stroke: currentColor; stroke-linecap: round; stroke-linejoin: round;"></path><rect x="14.517" y="20.262" width="8" height="3" rx="1" ry="1" style="fill: none; stroke: currentColor; stroke-linecap: round; stroke-linejoin: round;"></rect></svg>